<svg width="35" height="35" viewBox="0 0 35 35" fill="none" xmlns="http://www.w3.org/2000/svg">
<g id="24 / basic / circle-plus">
<path id="icon" fill-rule="evenodd" clip-rule="evenodd" d="M17.24 33.0433C8.51204 33.0433 1.43665 25.9679 1.43665 17.24C1.43665 8.51206 8.51204 1.43667 17.24 1.43667C25.9679 1.43667 33.0433 8.51206 33.0433 17.24C33.0433 25.9679 25.9679 33.0433 17.24 33.0433ZM17.24 30.17C24.381 30.17 30.17 24.381 30.17 17.24C30.17 10.099 24.381 4.31 17.24 4.31C10.0989 4.31 4.30998 10.099 4.30998 17.24C4.30998 24.381 10.0989 30.17 17.24 30.17ZM24.4233 15.8033H18.6766V10.0567H15.8033V15.8033H10.0566V18.6767H15.8033V24.4233H18.6766V18.6767H24.4233V15.8033Z" fill="white"/>
</g>
</svg>
