<svg width="36" height="35" viewBox="0 0 36 35" fill="none" xmlns="http://www.w3.org/2000/svg">
<g id="24 / music / player-pause">
<path id="icon" fill-rule="evenodd" clip-rule="evenodd" d="M13.7701 2.87357H10.8966C9.30953 2.87357 8.02299 4.1601 8.02299 5.74713V28.7356C8.02299 30.3227 9.30953 31.6092 10.8966 31.6092H13.7701C15.3571 31.6092 16.6437 30.3227 16.6437 28.7356V5.74713C16.6437 4.1601 15.3571 2.87357 13.7701 2.87357ZM25.2644 2.87357H22.3908C20.8038 2.87357 19.5172 4.1601 19.5172 5.74713V28.7356C19.5172 30.3227 20.8038 31.6092 22.3908 31.6092H25.2644C26.8514 31.6092 28.1379 30.3227 28.1379 28.7356V5.74713C28.1379 4.1601 26.8514 2.87357 25.2644 2.87357ZM10.8966 5.74713V28.7356H13.7701V5.74713H10.8966ZM22.3908 28.7356V5.74713H25.2644V28.7356H22.3908Z" fill="white"/>
</g>
</svg>
