<svg width="35" height="35" viewBox="0 0 35 35" fill="none" xmlns="http://www.w3.org/2000/svg">
<g id="24 / music / volume-off">
<path id="icon" fill-rule="evenodd" clip-rule="evenodd" d="M11.4933 12.3812L17.24 9.50792V24.9721L11.4933 22.0988V12.3812ZM9.7175 10.0567L20.1133 4.85876V29.6213L9.71751 24.4233H4.30999C2.7231 24.4233 1.43666 23.1369 1.43666 21.55V12.93C1.43666 11.3431 2.7231 10.0567 4.30999 10.0567H9.7175ZM8.61999 12.93H4.30999V21.55H8.61999V12.93ZM21.9708 13.9459L24.0025 11.9141L27.2967 15.2083L30.5908 11.9141L32.6225 13.9459L29.3284 17.24L32.6225 20.5341L30.5908 22.5659L27.2967 19.2718L24.0025 22.5659L21.9708 20.5341L25.2649 17.24L21.9708 13.9459Z" fill="white"/>
</g>
</svg>
