<svg width="35" height="35" viewBox="0 0 35 35" fill="none" xmlns="http://www.w3.org/2000/svg">
<g id="24 / music / volume-high">
<path id="icon" fill-rule="evenodd" clip-rule="evenodd" d="M12.0115 12.3822L17.7586 9.50865V24.9741L12.0115 22.1005V12.3822ZM10.2355 10.0575L20.6322 4.85913V29.6236L10.2355 24.4253H4.82759C3.24056 24.4253 1.95403 23.1387 1.95403 21.5517V12.931C1.95403 11.344 3.24056 10.0575 4.82759 10.0575H10.2355ZM9.13793 12.931H4.82759V21.5517H9.13793V12.931ZM28.7918 4.96654C31.715 7.87462 33.5632 12.3105 33.5632 17.2414C33.5632 22.1723 31.715 26.6081 28.7918 29.5162L26.5275 27.7048C29.0356 25.3644 30.6897 21.5692 30.6897 17.2414C30.6897 12.9135 29.0356 9.11832 26.5275 6.77798L28.7918 4.96654ZM27.8161 17.2414C27.8161 13.7778 26.4726 10.65 24.3315 8.53475L22.065 10.3479C23.8034 11.9134 24.9425 14.4047 24.9425 17.2414C24.9425 20.078 23.8034 22.5694 22.065 24.1348L24.3315 25.948C26.4726 23.8328 27.8161 20.705 27.8161 17.2414Z" fill="white"/>
</g>
</svg>
